# xmcd
# 
# Track frame offsets:
#     182
#     21962
#     41340
#     58110
#     76820
#     94945
#     114410
#     134987
#     155547
#     178687
#     200017
#     218900
# 
# Disc length: 3219
# 
# Revision: 0
# Processed by: cddbd v1.5.2PL0 Copyright (c) Steve Scherf et al.
# Submitted via: BonkEnc v1.0.15
# 
DISCID=ab0c910c
DTITLE=Bee Gees - Still Waters
DYEAR=1997
DGENRE=Pop
TTITLE0=Alone
TTITLE1=I Surrender
TTITLE2=I Could Not Love You More
TTITLE3=Still Waters Run Deep
TTITLE4=My Lover's Prayer
TTITLE5=With My Eyes Closed
TTITLE6=Irresistible Force
TTITLE7=Closer Than Close
TTITLE8=I Will
TTITLE9=Obsessions
TTITLE10=Miracles Happen
TTITLE11=Smoke And Mirrors
EXTD=
EXTT0=
EXTT1=
EXTT2=
EXTT3=
EXTT4=
EXTT5=
EXTT6=
EXTT7=
EXTT8=
EXTT9=
EXTT10=
EXTT11=
PLAYORDER=
